# xmcd
#
# Track frame offsets: 
#        150
#        44225
#        78388
#        117903
#        148216
#        177441
#        217763
#        248388
#        277718
#
# Disc length: 4089 seconds
#
# Revision: 1
# Processed by: cddbd v1.5.2PL0 Copyright (c) Steve Scherf et al.
# Submitted via: ExactAudioCopy v0.95b4
#
DISCID=7a0ff709
DTITLE=Kelly Joe Phelps - Tap The Red Cane Whirlwind
DYEAR=2005
DGENRE=Blues
TTITLE0=Hard time Killin' Floor Blues
TTITLE1=Not so Far to Go
TTITLE2=Jericho
TTITLE3=Fleashine
TTITLE4=Carboard Box of Batteries
TTITLE5=Gold Tooth
TTITLE6=Tommy
TTITLE7=I am the Light of the World
TTITLE8=Waiting for Marty
EXTD=YEAR: 2005
EXTT0=
EXTT1=
EXTT2=
EXTT3=
EXTT4=
EXTT5=
EXTT6=
EXTT7=
EXTT8=
PLAYORDER=
